<svg width="41" height="41" viewBox="0 0 41 41" fill="none" xmlns="http://www.w3.org/2000/svg">
<path fill-rule="evenodd" clip-rule="evenodd" d="M25.1257 29.5H15.1257C14.0207 29.5 13.1257 28.605 13.1257 27.5V20.5C13.1257 19.395 14.0207 18.5 15.1257 18.5H25.1257C26.2307 18.5 27.1257 19.395 27.1257 20.5V27.5C27.1257 28.605 26.2307 29.5 25.1257 29.5Z" fill="#163592" stroke="white" stroke-width="1.5" stroke-linecap="round" stroke-linejoin="round"/>
<path d="M16.1257 18.5V15.5C16.1257 13.291 17.9167 11.5 20.1257 11.5C22.3347 11.5 24.1257 13.291 24.1257 15.5V18.5" stroke="white" stroke-width="1.5" stroke-linecap="round" stroke-linejoin="round"/>
<path d="M39.6257 20.5C39.6257 9.73045 30.8953 1 20.1257 1C9.35617 1 0.625725 9.73045 0.625725 20.5C0.625725 31.2696 9.35617 40 20.1257 40C30.8953 40 39.6257 31.2696 39.6257 20.5Z" stroke="white"/>
</svg>
